<svg width="21" height="21" viewBox="0 0 21 21" fill="none" xmlns="http://www.w3.org/2000/svg">
<path d="M15.2207 6.52311C16.079 7.55309 16.5082 8.84057 16.5082 10.2998C16.5082 11.7591 15.9932 13.0465 15.2207 14.0766L18.2249 17.0807C19.8556 15.2783 20.7998 12.8751 20.7998 10.3001C20.7998 7.72517 19.8556 5.322 18.2249 3.51953L15.2207 6.52311Z" fill="#FF6477"/>
<path d="M6.72326 15.0205L3.71924 18.0247C5.52171 19.6554 7.92488 20.5996 10.4998 20.5996C13.0748 20.5996 15.478 19.6554 17.2804 18.0247L14.2763 15.0205C13.2463 15.8788 11.9588 16.308 10.4995 16.308C9.0405 16.308 7.75302 15.793 6.72319 15.0205H6.72326Z" fill="#FF6477"/>
<path d="M10.4998 0C7.92488 0 5.52171 0.9442 3.71924 2.57496L6.72341 5.57913C7.75324 4.80664 9.04072 4.29165 10.4998 4.29165C11.9588 4.29165 13.2464 4.80664 14.2765 5.57913L17.2805 2.57496C15.478 0.9442 13.0749 0 10.4999 0H10.4998Z" fill="#FF6477"/>
<path d="M0.200195 10.2998C0.200195 12.8748 1.1444 15.278 2.77515 17.0804L5.77932 14.0763C5.00683 13.0464 4.49184 11.759 4.49184 10.2999C4.49184 8.84087 5.00683 7.55324 5.77932 6.52319L2.77515 3.51917C1.1444 5.32164 0.200195 7.72481 0.200195 10.2998V10.2998Z" fill="#FF6477"/>
</svg>
